<?xml version="1.0" encoding="utf-8"?>
<!-- Generator: Adobe Illustrator 22.1.0, SVG Export Plug-In . SVG Version: 6.00 Build 0)  -->
<svg version="1.1" id="Layer_1" xmlns="http://www.w3.org/2000/svg" xmlns:xlink="http://www.w3.org/1999/xlink" x="0px" y="0px"
	 viewBox="0 0 653 653" style="enable-background:new 0 0 653 653;" xml:space="preserve">
<style type="text/css">
	.st0{fill:#E40202;}
	.st1{fill:#FEFEFE;}
	.st2{fill:#FEFDFD;}
	.st3{fill:#E40303;}
</style>
<g>
	<g>
		<path class="st0" d="M353,653c-17,0-34,0-51,0c-7-1-14.1-1.7-21-3.1c-16.5-3.3-33.1-6.3-49.2-10.8c-25.8-7.1-50-18.4-72.9-32.2
			c-20.7-12.5-40.3-26.7-57.2-44c-13-13.2-25.7-27-36.7-41.9c-11.2-15.3-21-31.9-29.9-48.7C23.2,449.9,15,426,9.5,401.1
			C5.6,383.6,2.6,366,2,348c0-1.3-0.6-2.6-1-4c0-11,0-22,0-33c0.3-0.7,0.9-1.3,1-2c1-10.3,2-20.5,3-30.8
			c1.7-17.7,6.4-34.6,11.7-51.5c6.6-21,15.6-41,26.3-60.2c14.3-25.5,31.9-48.4,52.3-69.2c8.2-8.5,17.5-16,26.5-23.6
			c15.4-13.1,32.2-24.2,49.9-33.6c20.1-10.7,41-19.8,62.9-26c18.9-5.3,38-9.7,57.7-11.2c4.9-0.4,9.8-1.3,14.7-2c13.3,0,26.7,0,40,0
			c0.5,0.3,0.9,0.9,1.5,0.9c9.8,1.1,19.6,1.4,29.2,3.2c16,3,32,6.4,47.7,10.8c21.5,6,41.7,15.3,61.2,26.3c21.5,12,41.7,26,59.6,42.8
			c11.5,10.9,22.2,22.7,32.7,34.6c16.2,18.1,28.9,38.7,39.8,60.3c10,19.7,18.1,40.3,23.5,61.8c6,23.6,10.6,47.4,10.7,71.8
			c0,1.2,0.6,2.3,1,3.5c0,6.7,0,13.3,0,20c-0.3,0.5-0.9,1-0.9,1.5c-1.1,12.3-1.3,24.6-3.2,36.7c-2.4,15.1-5.5,30.2-9.6,45
			c-7.2,26.1-18.3,50.6-32.2,73.9c-12.8,21.5-27.9,41.3-45.2,59.3c-9.5,9.8-20,18.7-30.4,27.5c-16.8,14.3-35.5,26-55.1,36.3
			c-19,10-38.9,18.3-59.7,23.6c-16.9,4.3-34.3,6.9-51.4,10.2C361.8,651.8,357.4,652.3,353,653z M266.3,472.9
			c19.6,0,38.9,0.2,58.2-0.1c8.9-0.1,18-0.6,26.7-2c23.6-3.9,41.1-22.5,42.5-46.3c1-17,1.2-34.3-0.1-51.3
			c-1.3-17.8-9.9-32.1-26.9-40c-0.6-0.3-1.2-0.8-2.1-1.5c12.8-6.7,20.4-16.8,23.4-30.4c4.2-18.8,4.2-37.6-0.2-56.2
			c-3.8-16.2-13.7-27.6-29.7-32.6c-8-2.5-16.5-3.9-24.9-4.2c-17.3-0.7-34.6-0.3-52-0.3c-4.9,0-9.9,0-15,0
			C266.3,296.4,266.3,384.3,266.3,472.9z M237.1,208.3c-13.2,0-25.9,0-39,0c0,2,0,3.8,0,5.6c0,66.6,0.1,133.3-0.2,199.9
			c0,5.1-1.4,10.6-3.6,15.2c-4,8-13.8,10.7-25,8c-8.2-2-13.7-9.5-14.3-19.9c-0.1-1.5,0-3,0-4.5c0-66.3,0-132.6,0-198.9
			c0-1.8,0-3.6,0-5.3c-14,0-27.6,0-41.3,0c0,2.4,0,4.3,0,6.3c0,64.6,0,129.3,0.1,193.9c0,6.6,0.3,13.3,1.5,19.8
			c4,21.9,15.6,37.8,37.6,44.3c15.1,4.5,30.5,4.3,45.6-0.1c14.3-4.2,25.2-13,31.6-26.7c5-10.7,7-21.9,7-33.6c0-66.3,0-132.6,0-198.9
			C237.1,211.8,237.1,210.1,237.1,208.3z M542.1,208.3c-13.2,0-25.9,0-39,0c0,2,0,3.8,0,5.6c0,66.6,0.1,133.3-0.2,199.9
			c0,5.1-1.4,10.6-3.6,15.2c-4,8-13.8,10.7-25,8c-8.2-2-13.7-9.5-14.3-19.9c-0.1-1.5,0-3,0-4.5c0-66.3,0-132.6,0-198.9
			c0-1.8,0-3.6,0-5.3c-14,0-27.6,0-41.3,0c0,2.4,0,4.3,0,6.3c0,64.6,0,129.3,0.1,193.9c0,6.6,0.3,13.3,1.5,19.8
			c4,21.9,15.6,37.8,37.6,44.3c15.1,4.5,30.5,4.3,45.6-0.1c14.3-4.2,25.2-13,31.6-26.7c5-10.7,7-21.9,7-33.6c0-66.3,0-132.6,0-198.9
			C542.1,211.8,542.1,210.1,542.1,208.3z"/>
		<path class="st1" d="M654,317c-0.3-1.2-1-2.3-1-3.5c-0.1-24.5-4.7-48.2-10.7-71.8c-5.5-21.5-13.6-42.1-23.5-61.8
			c-10.9-21.6-23.7-42.1-39.8-60.3c-10.6-11.9-21.2-23.7-32.7-34.6c-17.9-16.9-38.1-30.8-59.6-42.8C467.1,31.3,446.9,22,425.4,16
			c-15.7-4.4-31.7-7.8-47.7-10.8c-9.6-1.8-19.5-2.1-29.2-3.2c-0.5-0.1-1-0.6-1.5-0.9c102.3,0,204.7,0,307,0
			C654,106.3,654,211.7,654,317z"/>
		<path class="st1" d="M307,1c-4.9,0.7-9.8,1.6-14.7,2c-19.7,1.5-38.8,5.8-57.7,11.2c-22,6.2-42.8,15.3-62.9,26
			c-17.7,9.5-34.5,20.6-49.9,33.6c-9,7.7-18.2,15.2-26.5,23.6c-20.3,20.8-38,43.8-52.3,69.2c-10.7,19.2-19.7,39.2-26.3,60.2
			c-5.3,16.8-10,33.8-11.7,51.5c-1,10.3-2,20.5-3,30.8c-0.1,0.7-0.6,1.3-1,2C1,207.8,1,104.5,1,1C103,1,205,1,307,1z"/>
		<path class="st1" d="M353,653c4.4-0.7,8.8-1.2,13.2-2c17.2-3.3,34.5-5.9,51.4-10.2c20.8-5.3,40.7-13.5,59.7-23.6
			c19.5-10.3,38.2-21.9,55.1-36.3c10.4-8.9,20.9-17.7,30.4-27.5c17.3-18,32.4-37.8,45.2-59.3c13.8-23.3,24.9-47.8,32.2-73.9
			c4.1-14.8,7.2-29.9,9.6-45c1.9-12.1,2.2-24.5,3.2-36.7c0-0.5,0.6-1,0.9-1.5c0,105.2,0,210.5,0,316C553.7,653,453.3,653,353,653z"
			/>
		<path class="st1" d="M1,344c0.3,1.3,0.9,2.6,1,4c0.6,18,3.7,35.6,7.6,53.1c5.5,24.9,13.7,48.8,25.6,71.3
			C44,489.2,53.8,505.7,65,521c10.9,14.9,23.7,28.6,36.7,41.9c16.9,17.3,36.5,31.5,57.2,44c22.9,13.8,47.1,25.1,72.9,32.2
			c16.2,4.5,32.8,7.4,49.2,10.8c6.9,1.4,14,2.1,21,3.1c-100.3,0-200.5,0-301,0C1,550,1,447,1,344z"/>
		<path class="st2" d="M266.3,472.9c0-88.6,0-176.6,0-265c5.1,0,10.1,0,15,0c17.3,0,34.7-0.3,52,0.3c8.3,0.3,16.9,1.7,24.9,4.2
			c15.9,5,25.9,16.4,29.7,32.6c4.3,18.6,4.4,37.5,0.2,56.2c-3,13.6-10.6,23.7-23.4,30.4c1,0.7,1.5,1.2,2.1,1.5
			c17,7.9,25.6,22.2,26.9,40c1.3,17,1.1,34.2,0.1,51.3c-1.4,23.9-18.9,42.5-42.5,46.3c-8.8,1.4-17.8,1.9-26.7,2
			C305.2,473.1,285.9,472.9,266.3,472.9z M308.3,354.8c0,26.5,0,53.3,0,80.2c7.8,0,15.3,0,22.7,0c1.2,0,2.3,0,3.5-0.1
			c10.2-0.8,16.8-5.3,17.4-15.2c1-16.2,0.8-32.6-0.4-48.7c-0.7-9.2-7.4-15.4-17.1-16C325.9,354.3,317.2,354.8,308.3,354.8z
			 M308.2,315.8c6.8,0,13.2,0.3,19.4-0.1c12-0.8,19.3-6.8,20.3-18.6c1-11.7,0.8-23.5-0.2-35.2c-0.8-9.3-7-14.9-16.1-15.6
			c-7.7-0.6-15.5-0.1-23.5-0.1C308.2,269.5,308.2,292.5,308.2,315.8z"/>
		<path class="st2" d="M237.1,208.3c0,1.8,0,3.4,0,5c0,66.3,0,132.6,0,198.9c0,11.7-2,23-7,33.6c-6.5,13.8-17.3,22.5-31.6,26.7
			c-15.1,4.5-30.5,4.6-45.6,0.1c-22.1-6.5-33.7-22.4-37.6-44.3c-1.2-6.5-1.5-13.2-1.5-19.8c-0.1-64.6-0.1-129.3-0.1-193.9
			c0-2,0-4,0-6.3c13.7,0,27.3,0,41.3,0c0,1.8,0,3.6,0,5.3c0,66.3,0,132.6,0,198.9c0,1.5-0.1,3,0,4.5c0.7,10.3,6.1,17.9,14.3,19.9
			c11.2,2.7,21,0,25-8c2.3-4.5,3.6-10.1,3.6-15.2c0.2-66.6,0.2-133.3,0.2-199.9c0-1.8,0-3.6,0-5.6
			C211.2,208.3,223.9,208.3,237.1,208.3z"/>
		<path class="st2" d="M542.1,208.3c0,1.8,0,3.4,0,5c0,66.3,0,132.6,0,198.9c0,11.7-2,23-7,33.6c-6.5,13.8-17.3,22.5-31.6,26.7
			c-15.1,4.5-30.5,4.6-45.6,0.1c-22.1-6.5-33.7-22.4-37.6-44.3c-1.2-6.5-1.5-13.2-1.5-19.8c-0.1-64.6-0.1-129.3-0.1-193.9
			c0-2,0-4,0-6.3c13.7,0,27.3,0,41.3,0c0,1.8,0,3.6,0,5.3c0,66.3,0,132.6,0,198.9c0,1.5-0.1,3,0,4.5c0.7,10.3,6.1,17.9,14.3,19.9
			c11.2,2.7,21,0,25-8c2.3-4.5,3.6-10.1,3.6-15.2c0.2-66.6,0.2-133.3,0.2-199.9c0-1.8,0-3.6,0-5.6
			C516.2,208.3,528.9,208.3,542.1,208.3z"/>
		<path class="st3" d="M308.3,354.8c8.9,0,17.6-0.5,26.2,0.1c9.7,0.7,16.4,6.8,17.1,16c1.2,16.2,1.3,32.5,0.4,48.7
			c-0.6,9.9-7.2,14.4-17.4,15.2c-1.2,0.1-2.3,0.1-3.5,0.1c-7.5,0-15,0-22.7,0C308.3,408,308.3,381.3,308.3,354.8z"/>
		<path class="st3" d="M308.2,315.8c0-23.3,0-46.4,0-69.6c8,0,15.8-0.5,23.5,0.1c9.1,0.7,15.3,6.2,16.1,15.6
			c1,11.7,1.2,23.6,0.2,35.2c-1,11.8-8.3,17.8-20.3,18.6C321.4,316.2,315,315.8,308.2,315.8z"/>
	</g>
</g>
</svg>
